<svg xmlns="http://www.w3.org/2000/svg" width="124" height="105" viewBox="0 0 124 105">
  <g id="Group_129" data-name="Group 129" transform="translate(0.431 -0.261)">
    <rect id="Rectangle_39" data-name="Rectangle 39" width="124" height="105" rx="8" transform="translate(-0.431 0.261)" fill="#000814"/>
    <g id="Layer_2" data-name="Layer 2" transform="translate(11.513 3.29)">
      <g id="invisible_box" data-name="invisible box" transform="translate(0 0)">
        <rect id="Rectangle_35" data-name="Rectangle 35" width="100" height="100" transform="translate(0.057 -0.029)" fill="none"/>
        <rect id="Rectangle_36" data-name="Rectangle 36" width="100" height="100" transform="translate(0.057 -0.029)" fill="none"/>
      </g>
      <g id="icons_Q2" data-name="icons Q2" transform="translate(5.011 3.734)">
        <path id="Path_742" data-name="Path 742" d="M47.773,1.9A45.034,45.034,0,0,0,33.6,89.885c2.085.417,3.753-1.876,3.753-3.753V80.086C24.84,82.8,20.878,74.04,20.878,74.04a13.552,13.552,0,0,0-4.587-6.672c-4.17-2.919.208-2.71.208-2.71a8.965,8.965,0,0,1,6.88,4.17c3.544,6.046,11.467,5.421,13.969,4.378a11.258,11.258,0,0,1,1.042-6.046C24.214,64.658,16.5,56.318,16.5,45.06a22.308,22.308,0,0,1,6.046-15.845,12.926,12.926,0,0,1,.625-13.343,18.556,18.556,0,0,1,13.343,6.046A31.482,31.482,0,0,1,47.773,20.25a35.652,35.652,0,0,1,11.258,1.459,18.764,18.764,0,0,1,13.343-5.838,13.552,13.552,0,0,1,.834,13.343A22.308,22.308,0,0,1,79.047,45.06c0,11.258-7.714,19.6-21.891,22.1A11.258,11.258,0,0,1,58.2,73.206V86.132a3.753,3.753,0,0,0,3.961,3.753A45.242,45.242,0,0,0,47.773,1.9Z" transform="translate(-2.087 -1.898)" fill="#fff"/>
      </g>
    </g>
  </g>
</svg>
