<svg xmlns="http://www.w3.org/2000/svg" width="123" height="104" viewBox="0 0 123 104">
  <g id="Group_130" data-name="Group 130" transform="translate(-0.353 0.384)">
    <rect id="Rectangle_40" data-name="Rectangle 40" width="123" height="104" rx="8" transform="translate(0.353 -0.384)" fill="#a5064b"/>
    <g id="dribble-svgrepo-com" transform="translate(21.233 9.868)">
      <ellipse id="Ellipse_8" data-name="Ellipse 8" cx="41" cy="42" rx="41" ry="42" transform="translate(0.12 -0.252)" fill="none" stroke="#fff" stroke-miterlimit="10" stroke-width="3"/>
      <path id="Path_743" data-name="Path 743" d="M8.12,2.24A128.185,128.185,0,0,1,26.6,29.44a131.185,131.185,0,0,1,6.238,14.054,142.751,142.751,0,0,1,8.488,34.7" transform="translate(17.817 1.278)" fill="none" stroke="#fff" stroke-miterlimit="10" stroke-width="3"/>
      <path id="Path_744" data-name="Path 744" d="M73.085,4.82A71.693,71.693,0,0,1,45.963,21.835,110.539,110.539,0,0,1,1.55,29.217" transform="translate(-1.55 8.883)" fill="none" stroke="#fff" stroke-miterlimit="10" stroke-width="3"/>
      <path id="Path_745" data-name="Path 745" d="M73.506,15.52a65.771,65.771,0,0,0-31.583-2.053A51.322,51.322,0,0,0,5.09,41.93" transform="translate(8.885 31.306)" fill="none" stroke="#fff" stroke-miterlimit="10" stroke-width="3"/>
    </g>
  </g>
</svg>
