<svg xmlns="http://www.w3.org/2000/svg" width="124" height="105" viewBox="0 0 124 105">
  <g id="Group_127" data-name="Group 127" transform="translate(0.217 -0.261)">
    <rect id="Rectangle_37" data-name="Rectangle 37" width="124" height="105" rx="8" transform="translate(-0.217 0.261)" fill="#0077b5"/>
    <path id="linkedin-svgrepo-com" d="M17.763,23.549V75.262H0V23.549Zm26.775-.1V26.5c2.593-1.766,5.583-2.793,10.117-2.793,14.767,0,16.659,12.1,16.659,22.64V75.261H53.463V47.789c0-4.62-1.566-5.5-4.463-5.5-2.754,0-4.463.923-4.463,5.5V75.261H26.687V23.453ZM8.881,0a9.146,9.146,0,0,1,8.881,9.372,9.146,9.146,0,0,1-8.881,9.372A9.149,9.149,0,0,1,0,9.372,9.149,9.149,0,0,1,8.881,0Z" transform="translate(25.58 15.733)" fill="#fff" fill-rule="evenodd"/>
  </g>
</svg>
