<svg xmlns="http://www.w3.org/2000/svg" width="123" height="105" viewBox="0 0 123 105">
  <g id="Group_131" data-name="Group 131" transform="translate(-1155 -488)">
    <rect id="Rectangle_38" data-name="Rectangle 38" width="123" height="105" rx="8" transform="translate(1155 488)" fill="#001d3d"/>
    <g id="noun-email-5661277" transform="translate(1167.933 507.735)">
      <path id="Path_738" data-name="Path 738" d="M788.349,276.955v49.583a7.131,7.131,0,0,1-.369,2.266l-35.349-30.417,35-24.553a7.028,7.028,0,0,1,.715,3.122Z" transform="translate(-690.789 -269.768)" fill="#fff"/>
      <path id="Path_739" data-name="Path 739" d="M148.017,614.57a7.16,7.16,0,0,1-5.084,2.114H59.746a7.145,7.145,0,0,1-5.073-2.1l.108-.119L91.03,583.274l.813.564,4.2,2.352a10.872,10.872,0,0,0,10.591,0l4.206-2.352.813-.564L147.9,614.461Z" transform="translate(-52.562 -552.727)" fill="#fff"/>
      <path id="Path_740" data-name="Path 740" d="M65.72,298.266,30.37,328.683A7.094,7.094,0,0,1,30,326.417V276.835a7.186,7.186,0,0,1,.715-3.133l.022.022Z" transform="translate(-30.001 -269.648)" fill="#fff"/>
      <path id="Path_741" data-name="Path 741" d="M154.639,227.826l-.1.13-38.114,26.732-4.054,2.265a7.587,7.587,0,0,1-7.415,0l-4.054-2.265L62.791,227.956l-.108-.119.011-.011a7.105,7.105,0,0,1,4.379-1.5h83.187a7.1,7.1,0,0,1,4.38,1.5Z" transform="translate(-59.886 -226.33)" fill="#fff"/>
    </g>
  </g>
</svg>
